<svg xmlns="http://www.w3.org/2000/svg" width="27.159" height="37.88" viewBox="0 0 27.159 37.88">
  <path id="Path_372" data-name="Path 372" d="M443.411,626.156a13.251,13.251,0,0,0-13.252,13.251c0,.1,0,.209,0,.312,0,.021,0,.044,0,.068,0,.1.007.2.012.3.524,10.836,13.234,23.289,13.234,23.289s12.708-12.453,13.232-23.289c.005-.1.008-.2.012-.3,0-.024,0-.047,0-.068,0-.1,0-.209,0-.312A13.249,13.249,0,0,0,443.411,626.156Zm5.519,13.251a5.6,5.6,0,0,1-11.039,0,5.873,5.873,0,0,1-.08-.953,5.6,5.6,0,1,1,11.2,0A5.763,5.763,0,0,1,448.93,639.407Z" transform="translate(-429.83 -625.827)" fill="none" stroke="#999998" stroke-linecap="round" stroke-linejoin="round" stroke-width="0.658"/>
</svg>
