<svg xmlns="http://www.w3.org/2000/svg" width="36.073" height="36.103" viewBox="0 0 36.073 36.103">
  <g id="Group_40" data-name="Group 40" transform="translate(-840.546 -770.915)">
    <g id="Group_39" data-name="Group 39">
      <path id="Path_44" data-name="Path 44" d="M856.224,774.025a3.767,3.767,0,0,1,3.262-3.11h13.867a3.686,3.686,0,0,1,3.265,3.333v24.446a3.646,3.646,0,0,1-2.364,3.184,6.67,6.67,0,0,1-2.438.223,4.811,4.811,0,0,1-4.532,4.8c-5.63.367-11.654-.285-17.325,0a4.814,4.814,0,0,1-4.532-4.8,6.672,6.672,0,0,1-2.438-.223,3.645,3.645,0,0,1-2.364-3.184,37.265,37.265,0,0,1,.115-6.415,3.186,3.186,0,0,1,2.475-2.172h2.212v-9.859a1.8,1.8,0,0,1,.26-.489c.964-1.282,2.748-2.5,3.786-3.786a1.64,1.64,0,0,1,.49-.261h6.26C856.269,775.176,856.161,774.549,856.224,774.025Zm-8.4,28.077a2.41,2.41,0,0,0,2.213,2.4l17.094,0a2.421,2.421,0,0,0,2.287-2.287l0-21.893a2.516,2.516,0,0,0-2.06-2.213H851.425v2.662a1.463,1.463,0,0,1-.937.937h-2.661v11.995h16.006a3.933,3.933,0,0,1,2.648,1.7,5.661,5.661,0,0,1-.03,5.041,3.976,3.976,0,0,1-2.543,1.656Zm-2.4-9.6h-1.987c-.523,0-.523,1.2,0,1.2h1.987Zm7.2,6.222c.231-.014.475.026.706-.006a1.319,1.319,0,0,0-.069-2.618,4.611,4.611,0,0,0-1.356.068c-.134.1-.168.4-.184.567a14.786,14.786,0,0,0,.053,2.651c.087.282.218.347.506.31C852.81,799.632,852.585,799.124,852.625,798.728Zm2.117-2.53a1.567,1.567,0,0,0-.1.466,18.827,18.827,0,0,0,0,2.48c.066.743.766.621,1.389.558a1.807,1.807,0,0,0,1.376-2.8A2.348,2.348,0,0,0,854.742,796.2Zm4.106.881h1.387c.592,0,.576-.85.21-.96a15.868,15.868,0,0,0-2.088-.019c-.288.039-.378.209-.411.49a17.706,17.706,0,0,0,.006,2.7.5.5,0,0,0,.746.379c.332-.162.005-1.2.22-1.354.321-.142,1.2.187,1.279-.3.126-.762-.831-.377-1.279-.516Z" fill="#a05ed3"/>
      <g id="Group_38" data-name="Group 38">
        <g id="Group_34" data-name="Group 34">
          <rect id="Rectangle_22" data-name="Rectangle 22" width="4.798" height="3.599" transform="translate(852.625 782.909)" fill="#a05ed3"/>
          <rect id="Rectangle_23" data-name="Rectangle 23" width="11.995" height="1.2" transform="translate(852.625 787.708)" fill="#a05ed3"/>
          <rect id="Rectangle_24" data-name="Rectangle 24" width="11.995" height="1.2" transform="translate(852.625 790.107)" fill="#a05ed3"/>
          <rect id="Rectangle_25" data-name="Rectangle 25" width="5.998" height="1.2" transform="translate(858.623 782.909)" fill="#a05ed3"/>
          <rect id="Rectangle_26" data-name="Rectangle 26" width="5.998" height="1.2" transform="translate(858.623 785.308)" fill="#a05ed3"/>
        </g>
        <g id="Group_37" data-name="Group 37">
          <g id="Group_36" data-name="Group 36">
            <path id="Path_45" data-name="Path 45" d="M855.549,798.728v-1.649C857.226,796.779,857.227,799.028,855.549,798.728Z" fill="#a05ed3"/>
            <g id="Group_35" data-name="Group 35">
              <path id="Path_46" data-name="Path 46" d="M852.625,797.078c1.2-.245,1.266.946.07.718Z" fill="#a05ed3"/>
            </g>
          </g>
        </g>
      </g>
    </g>
  </g>
</svg>
