<svg xmlns="http://www.w3.org/2000/svg" width="19.917" height="14.098" viewBox="0 0 19.917 14.098">
  <g id="Group_41" data-name="Group 41" transform="translate(-1990.162 -1750.25)">
    <g id="Group_40" data-name="Group 40">
      <path id="Path_44" data-name="Path 44" d="M2009.918,1751.943v10.713a1.77,1.77,0,0,1-1.627,1.53l-16.3,0a1.745,1.745,0,0,1-1.662-1.628c.03-3.6-.065-7.22.048-10.817a1.741,1.741,0,0,1,1.614-1.332l16.3,0A1.779,1.779,0,0,1,2009.918,1751.943Zm-1.99-.383h-15.61l6.695,6.677a1.726,1.726,0,0,0,2.22,0Zm-16.452,10.637,4.933-4.911-4.933-4.884Zm17.294,0v-9.8l-4.933,4.911Zm-.842.842-4.949-4.895c-.894.921-1.632,1.712-3.03,1.644-1.244-.06-1.874-.877-2.709-1.644l-4.922,4.895Z" fill="#3c3c3c" stroke="#fff" stroke-miterlimit="10" stroke-width="0.321"/>
    </g>
  </g>
</svg>
